<?xml version="1.0" encoding="utf-8"?>
<!-- Generator: Adobe Illustrator 19.1.1, SVG Export Plug-In . SVG Version: 6.00 Build 0)  -->
<svg version="1.1" xmlns="http://www.w3.org/2000/svg" xmlns:xlink="http://www.w3.org/1999/xlink" x="0px" y="0px"
	 viewBox="0 0 239 119" style="enable-background:new 0 0 239 119;" xml:space="preserve">
<style type="text/css">
	.st0{fill:#FFFFFF;}
</style>
<g id="Layer_1">
</g>
<g id="Layer_3">
</g>
<g id="Layer_2">
	<g>
		<g>
			<path class="st0" d="M98.3,104.5c-1.1,3.2-2.8,5-2.9,5.1c-2.7,3.1-2.3-2.2-2.2-3.3c0.1-0.7,0.1-1.1,0.2-1.8c-0.2,0-1.7-0.1-2.3,0
				c-0.1,2.4,0.2,5.6,1.4,7.2c2.7,3.3,8-5,9.2-7.2C100.4,104.5,99.5,104.5,98.3,104.5z"/>
			<g>
				<path class="st0" d="M233.8,37.5c-3.1,1.8-8.8,10.9-11,14.2c-0.6,0.8-6.3,10.1-8.5,9.9c-1.5-0.4,1.2-6,2.9-9.4
					c2.1-4.4,3.8-5.8,5.7-10.2c0.6-1.4-3.6-3.5-4.2-3.2c-3.9,2.2-8.9,13.2-8.8,13.4c-1,1.9-1.4,3.5-2.5,5.6c-0.4,0.7-3,8.4-4.6,6.8
					c-1.2-1.2-0.1-7.6-0.4-7.9c0,0,3-2,5.4-6.9c1.2-2.4,2.4-8.6,1.5-10.5c-0.4-0.8-3.2-2.6-4.2-2.1c-3.1,1.7-5.7,8.8-7.1,11.9
					c-0.8,1.9-1.6,4-1.6,4c1.5-7,6.7-24.7,16.9-36c1.3-1.4,2.9-3,4.7-3.8c0.1,0-1.8-4.1-3.1-4c-2.8,0.1-5.8,5.4-8.8,9.9
					c-4.6,6.7-12.5,27.5-13.2,38.1c-1.4,1-2.8,2-4.9,2.4c-0.4-6.8-6-10.4-7-11.2c-1.9-1.5-2.4-3.1-2.3-4.7
					c-0.8-1.7,10.8-6.9,9.6-13.8c-0.2-1-1.9-2-3-1.9c-1.4,0-8.7,7.2-11.3,10.5c-1.4,1.6-2.2,3.7-1.7,5.4c0,0,0,0,0,0c0,0,0,0,0,0
					c0,0,0,0.1,0,0.1c0.1,0.1,0.4,0.4,0.7,0.7c0.2,0.2,0.4,0.3,0.6,0.5c-0.8,1-1.8,1.5-3.7,1c-0.1,0-0.3-0.1-0.3,0.1
					c0.6,5.4,0.6,10-0.7,15.3c-0.9,3.7-2.2,7-6.1,9.1c-0.6,0.3-1.5-1.3-1.2-2.5c0.7-5.1,3-8.3,4.5-13.2c1.7-5.4,2.1-9.9-0.8-13
					c-0.2-0.2-3.8-2.2-4.2,0.6c-0.2,0.6-0.3,1.3-0.3,2c-2,1.8-5,2.9-7.7,3.6c-0.4-0.6-0.7-1.3-1.3-1.9c-2.6-2.4-8.8-1.2-11.4,0.2
					c-4.4,2.5-7.9,8.9-4,10.8c0.3,0.1,0.5,0.4,0.7,0.5c-0.2,0.3-0.3,0.7-0.4,1c-1.6,2.5-3.5,4.8-6,10.6c-0.2,0.5-3.1,7.2-4.7,6.5
					c-3-1.5-2-8.4-1.4-14c1.8-1.3,3.4-2.9,4.9-4.6c6.8-7.9,10.5-16.7,14.7-26.3c2.2-5,3.3-9.7,3.9-14.7c0.3-2.1,1.2-7.4-0.1-9.4
					c-2.6-4.3-7.5-0.1-10.1,3.5c-5.6,7.9-10,17.6-12.5,24.8c-2.7,7.6-5.3,15.3-5.8,23.4c-2.3,1.6-4.6,3-6.6,4.7
					c1.7-3.9,3.6-7.8,3.9-10.7c0.3-2.5-2.6-4.4-4.1-1.8c-2.2,3.8-2.6,4.6-4.3,9c-0.4,0.8-3,5.2-3.5,5.9c-1,1.3-1.8,0-1.5-2.6
					c0.3-3.5,4.7-10,4.5-14.4c0-0.2-1-1.1-1.2-1c-2.7,2.8-3,4.9-4.1,7.5c-1.2,2.9-2.7,5.3-3.7,8.4c-0.5,1.5-0.6,5.4-0.6,5.4
					c-0.6,2-4.4,7.5-6,6.3c-2-0.7,1.2-12.1,2-15.6c0.6-3.1,0.7-5.7-1.6-7.8c-0.6-0.5-6.4-2.4-4.9-6.6c1.9-5,2.4-8.4,5.9-12.3
					c0.6-0.6-1.8-2.7-3.3-1.5c-5.5,4.3-9,9.5-8.1,15.5c0.2,1.3,0.7,2.8,1.8,3.9c-0.8,0.4-1.3,0.5-2.4,0.6c-0.9,0.1-1.7-0.1-2.5-0.3
					c-0.1,0-0.2-0.1-0.3-0.1c-0.5-0.9-1.2-1.7-1.9-2.4c-0.5-0.4,0.2,5.2,0.5,6.1c2.3,6.8-1.4,13.2-4.2,17.8
					c-3.5,5.5-3.2-3.5-2.7-6.1c0.6-3.8,2.2-7.2,3.1-10.9c0.1-0.4-0.8-3.2-0.8-3.2c-0.1-0.3-0.4,0.2-0.6,0.6c-2.4,2.4-4,5.4-5.5,7.9
					c-2.6,4.5-8.7,15.4-12.1,15.9c-0.6,0.2-1-1.3-0.9-2.4c0.6-5.4,2.9-7,6-11.4c0.7-0.9-0.8-5.9-1.3-5.4c-3.6,3.5-7.2,8.1-10.1,12.3
					c-1.3,1.8-3,1.7-2.4-0.9c0.4-1.6,1.6-3.4,2.4-4.9c0.8-0.7,1.3-1.1,2.1-1.8c2.8-2.4,5.6-4.6,10-6.6c0.1,0.8,1.2,1.5,1.3,1.4
					c2.3-3,3.7-8.5-1.1-8.6c-10-0.2-16.3,16-16.6,16.9c-1.4,1.3-5.8,6.7-9.1,8.2c0.1-0.1,1.4-4.3,1.9-7.5c1.9-0.4,1.2-0.3,2.9-0.4
					c0.5-0.1,0.5-3.1-0.2-3.2c-1.4-0.2-1.3-0.3-3.2-0.2c-0.3-2.5-2.8-3.6-5.1-5.2c-0.2-0.1-0.7,2.1,0,2.8c0.9,0.8,1.4,1.7,1.6,2.7
					c-3.7,0.4-7.2,0.7-9.7,1.4c-2.8,0.8-5.9,2.1-7.3,4.9c-0.3,0.6,0.5,5.2,0.9,4.9c2.2-2.1,5.9-4.3,8.6-5.5c2.4-1,4.9-1.3,7.3-1.9
					c-0.8,3.4-1.6,6.4-3.5,9.7c-2,1.3-4.9,1.7-7.4,2c-0.1,0-0.1,0.5,0,0.9c0,0.2,0.1,0.3,0.2,0.4c0,0,0.1,0.1,0.1,0.1
					c1.7,0.2,3.4,0.2,5-0.1c-2.4,5.3-9.1,12.4-13.2,13.2c-5.6,1-8-3.5-9.2-8.4c-1.4-5.4-0.6-12.6,0.6-18
					c3.2-14.2,10.7-26.3,19.8-37.5c5.4-6.7,18.7-12.5,20-4.3c0.8,5.1-1.1,9-2.4,11.4c-1.3,2.4-3.1,4.9-6.2,4.5
					c-0.2,0-0.1,2.7,0.5,2.9c3.4,0.9,6-0.1,7.8-2.6c2.3-3.2,3-4.5,4.1-9c1.9-8-2.6-16.9-15.4-14c-4.1,0.9-8.9,4.2-12.4,7.4
					c-5,4.6-10.9,12.8-13.8,19C3.6,53.5,1.3,59,0.4,68c-0.8,7.2-0.3,14.2,1.7,20.8c1.9,6.2,8.5,10,15,7.8c6.2-2.1,14.3-12.7,17-19.1
					c3.6-2.2,7.6-6.5,8.7-7.6c-0.4,1.5-1.1,4.1-1.1,5.4c0,1.5,0.2,4.4,2,4.7c2.6,0.5,5.8-7,7.8-10.1c-1.8,7.3,0.2,11.1,2.4,12
					c3.9,1.5,12.5-16.2,14.4-19.4c0.9-1.6,1.7-3.1,2.6-4.4c-1.3,4.3-2.4,8.8-2.7,14.1c-0.1,2.5,0.4,9.6,4.8,6.9
					c4.1-2.6,7.4-9,8.7-14.2c0.6-2.3,1.1-5.6,0.3-8.9c2.3,0.3,4.5,0.1,5.8-2.2c0.1-0.2,0.1-0.6,0-1.2c0.1,0,0.1,0,0.2,0c0,0,0,0,0,0
					c1.9,1.3,2.9,1.5,2,5.2c-1.2,4.5-5,15.7-1.3,19.2c4,3.7,8.8-0.7,10.8-5.2c0.1,0.1,0.2,0.6,0.5,1c1.7,2.2,5.1-2.2,6.9-5.6
					c1-1.9,3-5.9,3.2-6.6c-0.6,3.3-1,4.2-1.7,7.3c-1.3,1.8-9.2,14.8-11.5,19c-0.2,0.3-1,1.8-1.1,2.2c1.2,0,1.7-0.1,2.9-0.1
					c2.5-5.3,5.9-11.6,8.8-16c-0.1,3-2.1,11.4-2.3,12.5c-0.2,0.9-0.4,2.3-0.7,3.2c1.2,0.1,1.7,0,2.8,0.1c2-7.4,3.2-14.5,3.4-16.9
					c0.1-0.7,0.3-0.4,0.5-1.1c2.4-3.1,5.5-5,8.7-7.1c0,0.7,0.2,15.1,6.2,15.7c2.7,0.2,4.8-4.3,5.5-5.7c1.9-3.9,3.9-8.5,6.2-11.1
					c-0.2,2.1-0.1,4.2,0,5.7c0.2,3.1,0.9,6.7,4,7.7c2.8,0.9,8.2-8.1,9.5-11.2c2-4.7,3-8.6,3.1-13.9c2.3-0.7,4.7-1.4,6.6-2.5
					c0,0,0,0.1,0,0.1c-0.1,4.7-2.8,8.9-3.6,13.6c-0.6,3.6-0.5,10.1,3.5,11.3c7,2.1,10.2-9,11-14c0.6-3.7-0.1-6.2,0-9.9
					c0-1.2,2.6-0.9,3.2-1.1c1-0.3,1.7-0.9,2.2-1.6c3.5,3.3,7.2,9,6.2,14c-0.4,0.3-8.9,2.3-10.6,7.9c-0.5,1.5-0.6,3.5,1.5,4.2
					c2.3,0.8,6.1,0,8.8-1.7c2-1.2,4.1-4.4,4.8-8.4c2.2-0.4,3.4-0.9,4.7-1.6c-0.3,2.7-0.7,4.1-0.3,7.9c0.1,0.6,2.5,1.4,2.5,1.3
					c0-1.6,1.9-9.1,3.2-11.6c0.1,0,1,11.8,6,8.3c3.4-2.4,8.6-13.1,8.8-13.3c-0.3,1-0.6,1.9-0.9,2.9c-1,3.4-3.3,9.5,1.2,9.2
					c3-0.2,7.8-7.8,8.9-9.5c2.7-4,5.5-7.3,7.9-10c2.4-2.6,3.4-2.9,5-4.1C235.8,41.3,234.5,37.1,233.8,37.5z M126.1,47.8
					c1.8-8.7,10.5-29.7,15.1-34.8c1.1-1.2,3.1-5.3,4.8-4.8c1.2,0.2-1.2,11.2-2.7,15.4c-2.3,6.8-5.4,13.3-9.5,19.1
					c-3,4.3-5.2,8.7-9.1,12.4C125,51.7,125.6,50,126.1,47.8z M53.9,56.3c1.7-2.2,2.9-3.4,5.5-4.4c2.1-0.8,2.9-0.3,2.6,1.1
					c-3.8,1.3-6.7,3.5-10.2,6.3C52.5,58.1,53,57.4,53.9,56.3z M140.1,54.5c-0.6,0.4-1-0.5-1.7-0.3c0.6-2,1.5-3.1,2.4-4
					c2-2.1,4.3-2.8,7-2.8c1.4,0,2.7,1.3,2.5,1.4C144.8,50.2,141.3,52,140.1,54.5z M150,58c-0.8,3.7-3.2,8-5.2,10.5
					c-2.5,3.2-3.3,0.3-3.4-1.6c-0.1-3.7,0.3-6.7,1.7-10.2c1.7-1.7,2.5-1.9,4.7-3.3c0.8-0.5,2-1,3.1-1.4
					C150.9,55.1,150.1,57.6,150,58z M180,69c-4,2.3-6.5-0.6-2-3.5c0.8-0.5,4.2-1.8,5.1-1.9C182.6,64.1,182.7,67.4,180,69z
					 M205.3,46.3c0.4,0.6,0.1,1.7-3.5,5.4C202.8,48,204.4,45.8,205.3,46.3z"/>
				<path class="st0" d="M234.4,23.8c-0.9-3.4-6.3-1.1-7.6-0.4c-4.2,2.3-7.2,7.1-7.6,10.8c0,0.2,1.2,1.9,1.3,1.8
					c0.6-1.1,1.7-2.5,2.4-3.1c1.7-1.8,7.2-4.5,11-4.9C234.6,27.9,234.7,25.1,234.4,23.8z"/>
			</g>
		</g>
		<g>
			<path class="st0" d="M72.9,90.6h2.8l1.8,12.1H76l-0.5-3.1h-2.5l-0.5,3.1h-1.5L72.9,90.6z M74.5,92h-0.3l-0.9,6h2.1L74.5,92z"/>
			<path class="st0" d="M79.8,102.6h-1.5V90.6h3.5l1.9,1.9v4.2L82.4,98l2.1,4.6H83l-1.9-4.1h-1.3V102.6z M79.8,97.1h1.5l1-1.1v-3
				l-1-1h-1.5V97.1z"/>
			<path class="st0" d="M89.2,92.9l-0.9-1h-1l-0.9,1v7.3l0.9,1h1l0.9-1v-1.3l1.5,0v1.9l-1.8,1.9h-2.3l-1.7-1.9v-8.5l1.8-1.8h2.3
				l1.8,1.8v1.8h-1.5V92.9z"/>
			<path class="st0" d="M91.8,102.6v-12h1.5v5.3H96v-5.3h1.5v12H96v-5.3h-2.7v5.3H91.8z"/>
			<path class="st0" d="M98.7,102.6V90.5c1.3,0,0.2,0,1.5,0v12.1H98.7z"/>
			<path class="st0" d="M103,91.9h-2.1v-1.3h5.7v1.3h-2.1v10.8H103V91.9z"/>
			<path class="st0" d="M111.8,95.9v1.5h-2.9v3.8h3.7v1.5h-5.2V90.6c1.9,0,3,0,4.9,0V92h-3.5v3.9H111.8z"/>
			<path class="st0" d="M117.7,92.9l-0.9-1h-1l-0.9,1v7.3l0.9,1h1l0.9-1v-1.3l1.5,0v1.9l-1.8,1.9h-2.3l-1.7-1.9v-8.5l1.8-1.8h2.3
				l1.8,1.8v1.8h-1.5V92.9z"/>
			<path class="st0" d="M121.9,91.9h-2.1v-1.3h5.7v1.3h-2.1v10.8h-1.5V91.9z"/>
			<path class="st0" d="M127.8,90.5v9.7l0.9,1h1l0.9-1v-9.7h1.5v10.2l-1.7,1.9h-2.3l-1.7-1.9V90.5H127.8z"/>
			<path class="st0" d="M134.7,102.6h-1.5V90.6h3.5l1.9,1.9v4.2l-1.3,1.4l2.1,4.6h-1.6l-1.9-4.1h-1.3V102.6z M134.7,97.1h1.5l1-1.1
				v-3l-1-1h-1.5V97.1z"/>
			<path class="st0" d="M144.6,95.9v1.5h-2.9v3.8h3.7v1.5h-5.2V90.6c1.9,0,3,0,4.9,0V92h-3.5v3.9H144.6z"/>
			<path class="st0" d="M151.9,93.7V93l-0.8-0.9h-1l-0.8,0.9v1.8l0.9,1h3.9v1.5h-0.7v5.4h-4l-1.8-1.8v-3.2l1.3-1.2l-1-1.1v-2.9
				l1.7-1.8h2.2l1.6,1.8v1.3H151.9z M151.9,97.2H150l-1,1v1.9l0.9,0.9h1.9V97.2z"/>
			<path class="st0" d="M156.7,90.6h3.8l1.8,1.8v8.4l-1.8,1.8c-1.3,0-2.6,0-3.8,0V90.6z M159.9,101.1l0.9-0.9V93l-0.9-0.9h-1.8v9.1
				H159.9z"/>
			<path class="st0" d="M167.9,95.9v1.5H165v3.8h3.7v1.5h-5.2V90.6c1.9,0,3,0,4.9,0V92H165v3.9H167.9z"/>
			<path class="st0" d="M170.9,100.2l1,1h1.1l0.9-1v-1.9l-4.3-3v-3l1.7-1.8h2.3l1.7,1.8v1.9h-1.4v-1.3l-0.9-0.9h-1l-0.9,0.9v1.7
				l4.3,3v3.3l-1.8,1.9h-2.3l-1.8-1.9v-2.2h1.4V100.2z"/>
			<path class="st0" d="M176.4,102.6V90.5c1.3,0,0.2,0,1.5,0v12.1H176.4z"/>
			<path class="st0" d="M183.6,93l-1-1h-1.2l-1,1v7.2l1,1.1h1.1l1-1.1v-2.6H182v-1.4h3.1v4.7l-1.8,1.9h-2.5l-1.8-1.9v-8.4l1.8-1.8
				h2.4l1.8,1.8v2.2h-1.5V93z"/>
			<path class="st0" d="M186.3,90.6h2l1.4,4.3l1.2,4.5h0l-0.3-4.6v-4.2h1.5v12h-1.6l-1.9-5.9l-1-3.6h0l0.2,3.7v5.8h-1.5V90.6z"/>
		</g>
	</g>
</g>
</svg>
